:SAMPLES-PER-SECOND 30
:FULLY-SPECIFIED
:DEGREES
51
root  -8.24777 38.4283 7.23563 -25.2682 -67.2758 23.2663
RightUpLeg  -13.5952 -3.6962 -16.6859
RightLeg  66.6018 -0.929236 -3.04713
RightFoot  5.00614 -1.21547 8.63263
RightToes  0.00048216 0.542163 -0.142577
Spine  17.8263 0.747434 -2.54455
Spine1  11.2629 2.2211 -6.20044
HEad  10.691 -6.27504 1.41345
LeftShoulder1  8.11693 -12.9322 -42.9344
LeftArm  -11.6066 5.39694 -24.6359
LeftForeArm  25.3996 -10.4155 -5.20117
LeftHand  -0.25398 0.0180481 5.50724
RightShoulder  5.57622 9.80021 35.9341
RightArm  2.57742 1.42563 37.2645
RightForeArm  -4.6359 26.7059 5.98502
RightHand  -2.42615 6.88385 -23.0563
LeftUpLeg  -14.5588 18.062 -12.6027
LeftLeg  30.2076 8.36254 5.58342
LeftFoot  -14.5472 0.181555 3.35331
LeftToes  1.06246e-005 4.65855e-005 -8.18505e-006
52
root  -9.4263 38.7223 7.87727 -23.1703 -66.5265 20.2478
RightUpLeg  -18.6947 -5.53747 -14.236
RightLeg  65.1712 -2.8723 -7.3333
RightFoot  2.57218 -0.812131 6.77013
RightToes  0.00048216 0.542163 -0.142577
Spine  19.2924 0.254295 -2.25156
Spine1  11.5522 1.36066 -4.99615
HEad  10.7304 -6.66966 1.735
LeftShoulder1  8.39014 -13.2413 -43.5983
LeftArm  -11.8191 -1.14214 -23.6904
LeftForeArm  24.665 -11.619 -5.22036
LeftHand  -0.25398 0.0180481 5.50724
RightShoulder  5.56188 9.78191 35.8851
RightArm  3.71337 0.183674 37.2663
RightForeArm  -1.97089 26.2311 5.73825
RightHand  -2.30411 6.44322 -22.7196
LeftUpLeg  -10.2701 17.3461 -11.1143
LeftLeg  28.3694 8.37905 5.22821
LeftFoot  -15.9038 0.212362 2.93478
LeftToes  1.06246e-005 4.65855e-005 -8.18505e-006
53
root  -10.6203 38.9659 8.54056 -20.7489 -65.7352 16.9949
RightUpLeg  -22.6891 -7.71246 -11.5602
RightLeg  59.9267 -4.57372 -9.02477
RightFoot  0.846349 -0.514547 4.9088
RightToes  0.00048216 0.542163 -0.142577
Spine  20.6934 -0.398935 -1.77514
Spine1  11.7613 0.287466 -3.5819
HEad  10.4324 -6.81871 2.02117
LeftShoulder1  8.60226 -13.5086 -44.0212
LeftArm  -11.6163 -6.66542 -23.1487
LeftForeArm  22.8513 -14.0738 -4.97302
LeftHand  -0.25398 0.0180481 5.50724
RightShoulder  5.58127 9.84158 35.8441
RightArm  4.86085 -1.05315 37.1528
RightForeArm  -1.11946 25.5137 5.52978
RightHand  -2.39363 6.6151 -23.2401
LeftUpLeg  -6.11518 16.864 -9.42167
LeftLeg  26.4613 7.87409 4.58941
LeftFoot  -16.9871 0.214363 2.28088
LeftToes  1.06246e-005 4.65855e-005 -8.18505e-006
54
root  -11.8746 39.0594 9.20187 -19.0794 -64.7576 14.8571
RightUpLeg  -25.3107 -10.1326 -9.31457
RightLeg  51.1276 -5.2357 -7.33038
RightFoot  -0.671232 -0.570558 6.06617
RightToes  0.00048216 0.542163 -0.142577
Spine  21.8143 -0.991227 -2.09734
Spine1  11.8517 -0.977758 -1.91745
HEad  10.0392 -6.77201 2.16047
LeftShoulder1  8.63875 -13.702 -43.6938
LeftArm  -11.263 -11.1041 -23.3749
LeftForeArm  20.7395 -17.2763 -4.41747
LeftHand  -0.25398 0.0180481 5.50724
RightShoulder  5.61779 9.9474 35.7878
RightArm  5.61061 -2.30449 36.9841
RightForeArm  -1.67444 24.5776 5.34498
RightHand  -2.48624 6.84128 -23.6805
LeftUpLeg  -2.60592 16.2686 -8.19064
LeftLeg  25.3188 7.26883 4.07889
LeftFoot  -18.245 0.212869 1.70802
LeftToes  1.06246e-005 4.65855e-005 -8.18505e-006
55
root  -13.2567 38.9721 9.87145 -18.8084 -63.7291 14.6974
RightUpLeg  -26.9385 -13.2879 -7.41047
RightLeg  39.7649 -5.32316 -4.99288
RightFoot  -1.52433 -0.6329 7.22731
RightToes  0.00048216 0.542163 -0.142577
Spine  22.2839 -1.28183 -3.57669
Spine1  11.8744 -2.18045 -0.0750963
HEad  9.61111 -6.76072 2.21345
LeftShoulder1  8.55936 -13.8062 -42.9927
LeftArm  -11.0061 -14.9319 -23.858
LeftForeArm  19.3779 -20.7007 -3.97684
LeftHand  -0.25398 0.0180481 5.50724
RightShoulder  5.62387 9.99733 35.6806
RightArm  5.52801 -3.73729 36.7367
RightForeArm  -2.09018 23.636 5.16757
RightHand  -2.4299 6.71088 -23.4006
LeftUpLeg  0.267337 15.5772 -7.8832
LeftLeg  24.8856 7.11441 3.93618
LeftFoot  -20.1428 0.236216 1.49522
LeftToes  1.06246e-005 4.65855e-005 -8.18505e-006
56
root  -14.741 38.8049 10.5926 -19.2146 -62.8215 15.4681
RightUpLeg  -27.9016 -18.535 -4.75358
RightLeg  26.7512 -4.70932 -3.13497
RightFoot  -1.26808 -0.651638 7.27428
RightToes  0.00048216 0.542163 -0.142577
Spine  22.2268 -1.49701 -5.0903
Spine1  12.1854 -3.2292 1.71212
HEad  9.00381 -6.7593 2.24296
LeftShoulder1  8.59064 -13.9678 -42.7343
LeftArm  -11.3105 -18.4805 -23.6006
LeftForeArm  19.9349 -24.4428 -4.13635
LeftHand  -0.25398 0.0180481 5.50724
RightShoulder  5.5795 9.93756 35.5389
RightArm  4.5871 -5.23029 36.4291
RightForeArm  -1.74468 22.7377 5.05312
RightHand  -2.321 6.48248 -22.8066
LeftUpLeg  3.37894 15.0215 -7.94947
LeftLeg  23.9667 7.07609 3.78069
LeftFoot  -22.1622 0.234447 1.07858
LeftToes  1.06246e-005 4.65855e-005 -8.18505e-006
57
root  -16.2953 38.5633 11.3714 -20.1032 -61.8259 16.4588
RightUpLeg  -27.0286 -21.9271 -3.69724
RightLeg  13.046 -7.19757 -0.0342295
RightFoot  -1.2304 -0.761076 8.5225
RightToes  0.00048216 0.542163 -0.142577
Spine  22.219 -1.84899 -6.13093
Spine1  12.884 -4.24401 3.16969
HEad  8.22498 -6.74992 2.19304
LeftShoulder1  8.68123 -14.3103 -42.3335
LeftArm  -13.3501 -21.3279 -23.4182
LeftForeArm  22.7589 -28.1124 -4.83202
LeftHand  -0.25398 0.0180481 5.50724
RightShoulder  5.45916 9.79183 35.0959
RightArm  2.99122 -6.68657 36.4022
RightForeArm  -1.05996 21.737 5.05029
RightHand  -2.22842 6.30366 -22.2509
LeftUpLeg  7.20643 14.7064 -7.90477
LeftLeg  22.6232 6.55733 3.32594
LeftFoot  -23.7343 0.16171 0.174014
LeftToes  1.06246e-005 4.65855e-005 -8.18505e-006
58
root  -17.9701 38.1668 12.2021 -21.6746 -60.528 17.9366
RightUpLeg  -22.7137 -13.1041 -10.1925
RightLeg  0.534025 -21.8117 6.16102
RightFoot  -2.66361 -0.800102 10.2499
RightToes  0.00048216 0.542163 -0.142577
Spine  22.2533 -2.20257 -7.13558
Spine1  13.5785 -5.19307 4.39493
HEad  7.55205 -7.1209 1.92689
LeftShoulder1  8.39166 -14.631 -40.0193
LeftArm  -16.7442 -22.8169 -26.1108
LeftForeArm  25.4235 -30.0915 -5.13964
LeftHand  -0.25398 0.0180481 5.50724
RightShoulder  5.24232 9.67628 33.8271
RightArm  0.890048 -8.49141 36.9281
RightForeArm  -0.165978 20.6179 5.13591
RightHand  -2.08532 5.91424 -21.5579
LeftUpLeg  11.3066 14.4617 -7.94907
LeftLeg  21.8774 6.09435 2.90006
LeftFoot  -25.184 0.0914612 -0.50274
LeftToes  1.06246e-005 4.65855e-005 -8.18505e-006
59
root  -19.7039 37.6792 13.095 -22.7701 -59.6164 19.3001
RightUpLeg  -21.8522 -12.8081 -10.9304
RightLeg  -5.23552 -23.8013 8.32781
RightFoot  -3.41529 -0.704353 9.76574
RightToes  0.00048216 0.542163 -0.142577
Spine  21.9968 -2.44287 -7.0498
Spine1  13.9798 -5.742 5.36564
HEad  7.1571 -8.25039 1.243
LeftShoulder1  7.56085 -14.593 -35.6846
LeftArm  -20.6265 -22.9719 -32.3913
LeftForeArm  26.3503 -29.2288 -4.89384
LeftHand  -0.25398 0.0180481 5.50724
RightShoulder  5.00742 9.76388 31.8009
RightArm  -1.18757 -10.9971 37.3885
RightForeArm  1.17094 19.6114 5.22186
RightHand  -1.94488 5.47501 -20.9396
LeftUpLeg  14.7948 14.5493 -7.86863
LeftLeg  21.8274 6.06426 2.79688
LeftFoot  -26.9596 -0.0278362 -1.35982
LeftToes  1.06246e-005 4.65855e-005 -8.18505e-006
60
root  -21.2932 37.2794 14.0486 -21.7561 -60.3191 19.1283
RightUpLeg  -24.3814 -12.8924 -9.98169
RightLeg  -1.9644 -23.8567 7.18174
RightFoot  0.371493 -0.511351 5.31082
RightToes  0.00048216 0.542163 -0.142577
Spine  22.1283 -2.75506 -3.60414
Spine1  14.0144 -5.54574 5.38932
HEad  6.647 -9.78149 -0.000712978
LeftShoulder1  6.73454 -14.2614 -31.873
LeftArm  -23.1122 -22.3673 -38.6569
LeftForeArm  25.3873 -26.5844 -4.35233
LeftHand  -0.25398 0.0180481 5.50724
RightShoulder  4.88402 10.0914 29.9597
RightArm  -2.37847 -13.5034 36.5851
RightForeArm  2.78645 18.7895 5.27427
RightHand  -1.95294 5.50621 -20.9616
LeftUpLeg  16.7511 15.9594 -6.499
LeftLeg  22.8236 5.02254 2.66943
LeftFoot  -28.1681 -0.516051 -4.59947
LeftToes  1.06246e-005 4.65855e-005 -8.18505e-006
